<svg xmlns="http://www.w3.org/2000/svg" xmlns:xlink="http://www.w3.org/1999/xlink" width="272" height="110" viewBox="0 0 272 110">
  <defs>
    <clipPath id="clip-RIC_LOGO_W">
      <rect width="272" height="110"/>
    </clipPath>
  </defs>
  <g id="RIC_LOGO_W" clip-path="url(#clip-RIC_LOGO_W)">
    <g id="Grupo_3" data-name="Grupo 3" transform="translate(-694 -444)">
      <g id="Grupo_1" data-name="Grupo 1" transform="translate(705.247 421)">
        <path id="Subtração_3" data-name="Subtração 3" d="M51.827,61.236,0,31.313,52.63,0l-.091,6.921-41,24.392,40.372,23.31-.087,6.612Z" transform="translate(0 34.937)" fill="#15b8cf"/>
        <path id="Caminho_2" data-name="Caminho 2" d="M42.023,0,32.636-17.861a35.512,35.512,0,0,0-2.694-4.433,13.836,13.836,0,0,0-2.694-2.846,8.935,8.935,0,0,0-2.977-1.521,12.8,12.8,0,0,0-3.542-.456H13.863V0H8.083V-62.317H26.031a22.314,22.314,0,0,1,6.8,1.043,18.073,18.073,0,0,1,5.845,3.085,15.071,15.071,0,0,1,4.107,5.128,15.837,15.837,0,0,1,1.543,7.17,17.869,17.869,0,0,1-1,6.084,15.588,15.588,0,0,1-2.846,4.932A16.808,16.808,0,0,1,36-31.224a21.273,21.273,0,0,1-5.932,2.238v.174a9.608,9.608,0,0,1,2.3,1.347,13.808,13.808,0,0,1,2.021,2,24.943,24.943,0,0,1,1.934,2.694q.956,1.521,2,3.477L48.8,0ZM13.863-57.016v24.64H24.206a17.263,17.263,0,0,0,5.736-.913A12.7,12.7,0,0,0,34.4-35.9a11.718,11.718,0,0,0,2.868-4.085,13.59,13.59,0,0,0,1.021-5.389,10.834,10.834,0,0,0-3.5-8.539q-3.5-3.107-10.1-3.107ZM68.746,0h-5.78V-62.317h5.78Zm61.662-2.3a38.3,38.3,0,0,1-16.47,3.39,29.973,29.973,0,0,1-11.994-2.325,26.709,26.709,0,0,1-9.191-6.453,28.794,28.794,0,0,1-5.867-9.821,36.208,36.208,0,0,1-2.064-12.429,38.712,38.712,0,0,1,2.195-13.189,31.342,31.342,0,0,1,6.28-10.6,29.021,29.021,0,0,1,9.886-7.062A31.866,31.866,0,0,1,116.2-63.36a38.974,38.974,0,0,1,14.21,2.434v6.171a31.536,31.536,0,0,0-14.3-3.346,26.184,26.184,0,0,0-10.734,2.086,22.258,22.258,0,0,0-7.909,5.8,25.72,25.72,0,0,0-4.911,8.778,34.651,34.651,0,0,0-1.695,11.06,33.137,33.137,0,0,0,1.521,10.147,24.422,24.422,0,0,0,4.5,8.322,21.349,21.349,0,0,0,7.409,5.649,23.946,23.946,0,0,0,10.3,2.086,32.1,32.1,0,0,0,15.818-3.781Z" transform="translate(57.526 96)" fill="#e8b46a"/>
        <path id="Caminho_3" data-name="Caminho 3" d="M51.827,61.236,0,31.313,52.63,0l-.091,6.921-41,24.392L51.914,54.622l-.087,6.613h0Z" transform="translate(251.377 96.173) rotate(180)" fill="#15b8cf"/>
      </g>
      <path id="Caminho_5" data-name="Caminho 5" d="M9.8,0,8.411-3.727H3.006L1.652,0H.352l4.8-12.6H6.328L11.1,0ZM5.959-10.4q-.062-.167-.127-.387a3.79,3.79,0,0,1-.11-.5H5.687a4.9,4.9,0,0,1-.119.5q-.066.22-.127.387L3.4-4.79H8.016ZM22.042-.466A7.745,7.745,0,0,1,18.711.22a6.062,6.062,0,0,1-2.426-.47,5.4,5.4,0,0,1-1.859-1.305A5.824,5.824,0,0,1,13.24-3.542a7.323,7.323,0,0,1-.417-2.514,7.829,7.829,0,0,1,.444-2.667,6.339,6.339,0,0,1,1.27-2.145,5.869,5.869,0,0,1,2-1.428,6.445,6.445,0,0,1,2.632-.519,7.882,7.882,0,0,1,2.874.492v1.248a6.378,6.378,0,0,0-2.892-.677,5.3,5.3,0,0,0-2.171.422,4.5,4.5,0,0,0-1.6,1.173,5.2,5.2,0,0,0-.993,1.775,7.008,7.008,0,0,0-.343,2.237,6.7,6.7,0,0,0,.308,2.052,4.939,4.939,0,0,0,.91,1.683,4.318,4.318,0,0,0,1.5,1.143,4.843,4.843,0,0,0,2.083.422,6.493,6.493,0,0,0,3.2-.765Zm11.4,0A7.745,7.745,0,0,1,30.11.22a6.062,6.062,0,0,1-2.426-.47,5.4,5.4,0,0,1-1.859-1.305,5.824,5.824,0,0,1-1.187-1.986,7.323,7.323,0,0,1-.417-2.514,7.829,7.829,0,0,1,.444-2.667,6.339,6.339,0,0,1,1.27-2.145,5.869,5.869,0,0,1,2-1.428,6.445,6.445,0,0,1,2.632-.519,7.882,7.882,0,0,1,2.874.492v1.248a6.378,6.378,0,0,0-2.892-.677,5.3,5.3,0,0,0-2.171.422,4.5,4.5,0,0,0-1.6,1.173,5.2,5.2,0,0,0-.993,1.775,7.008,7.008,0,0,0-.343,2.237,6.7,6.7,0,0,0,.308,2.052,4.939,4.939,0,0,0,.91,1.683,4.318,4.318,0,0,0,1.5,1.143,4.843,4.843,0,0,0,2.083.422,6.493,6.493,0,0,0,3.2-.765ZM36.85,0V-12.6h6.144v1.072H38.019v4.623h4.605v1.055H38.019v4.79h5.256V0Zm9.773,0V-12.6h1.169v11.54h5.063V0ZM55.7,0V-12.6h6.144v1.072H56.871v4.623h4.605v1.055H56.871v4.79h5.256V0ZM72.339,0l-1.9-3.612a7.184,7.184,0,0,0-.545-.9,2.8,2.8,0,0,0-.545-.576,1.807,1.807,0,0,0-.6-.308,2.588,2.588,0,0,0-.716-.092H66.643V0H65.474V-12.6H69.1a4.513,4.513,0,0,1,1.375.211,3.655,3.655,0,0,1,1.182.624,3.048,3.048,0,0,1,.831,1.037,3.2,3.2,0,0,1,.312,1.45,3.614,3.614,0,0,1-.2,1.23,3.153,3.153,0,0,1-.576,1,3.4,3.4,0,0,1-.905.738,4.3,4.3,0,0,1-1.2.453v.035a1.943,1.943,0,0,1,.466.272,2.793,2.793,0,0,1,.409.4,5.045,5.045,0,0,1,.391.545q.193.308.4.7L73.71,0Zm-5.7-11.531v4.983h2.092a3.491,3.491,0,0,0,1.16-.185,2.568,2.568,0,0,0,.9-.527,2.37,2.37,0,0,0,.58-.826,2.749,2.749,0,0,0,.207-1.09,2.191,2.191,0,0,0-.708-1.727,2.982,2.982,0,0,0-2.043-.628ZM84.739,0,83.351-3.727H77.945L76.592,0h-1.3l4.8-12.6h1.178L86.04,0ZM80.9-10.4q-.062-.167-.127-.387a3.79,3.79,0,0,1-.11-.5h-.035a4.9,4.9,0,0,1-.119.5q-.066.22-.127.387L78.341-4.79h4.614Zm10.159-1.134V0H89.889V-11.531h-3.63V-12.6H94.7v1.072ZM98.66,0H97.491V-12.6H98.66Zm12.629,0-7-10.116q-.132-.193-.259-.4a2.569,2.569,0,0,1-.207-.4h-.044q.018.158.031.439t.013.7V0h-1.169V-12.6h1.292l6.882,9.993q.158.237.286.444t.233.382h.044q-.035-.29-.053-.65t-.018-.8V-12.6H112.5V0Zm14.466-.87A8.28,8.28,0,0,1,121.642.22a6.155,6.155,0,0,1-2.461-.47,5.329,5.329,0,0,1-1.854-1.31,5.775,5.775,0,0,1-1.173-2,7.691,7.691,0,0,1-.409-2.562,7.833,7.833,0,0,1,.2-1.775,6.936,6.936,0,0,1,.58-1.6,6.156,6.156,0,0,1,.936-1.354,5.856,5.856,0,0,1,1.27-1.046,6.094,6.094,0,0,1,1.578-.677,6.959,6.959,0,0,1,1.854-.237,7.979,7.979,0,0,1,3.34.668v1.292a7.064,7.064,0,0,0-3.48-.9,4.993,4.993,0,0,0-2.083.422,4.663,4.663,0,0,0-1.586,1.16,5.279,5.279,0,0,0-1.015,1.745,6.581,6.581,0,0,0-.369,2.184,6.962,6.962,0,0,0,.3,2.158,4.842,4.842,0,0,0,.927,1.709,4.243,4.243,0,0,0,1.521,1.125,5.085,5.085,0,0,0,2.092.4,5.537,5.537,0,0,0,2.777-.668V-5.353h-2.865V-6.416h4.034ZM141.644,0,136.52-5.9a3.326,3.326,0,0,1-.272-.36h-.035V0h-1.169V-12.6h1.169v5.933h.035a2.1,2.1,0,0,1,.132-.185l.149-.185,4.9-5.563h1.485l-5.467,6.082L143.279,0Zm12.708,0-7-10.116q-.132-.193-.259-.4a2.569,2.569,0,0,1-.207-.4h-.044q.018.158.031.439t.013.7V0h-1.169V-12.6h1.292L153.9-2.61q.158.237.286.444t.233.382h.044q-.035-.29-.053-.65t-.018-.8V-12.6h1.178V0Zm10.335.22a5.849,5.849,0,0,1-2.452-.5,5.445,5.445,0,0,1-1.85-1.358,6.053,6.053,0,0,1-1.169-2.026,7.5,7.5,0,0,1-.409-2.5,8.506,8.506,0,0,1,.409-2.7,5.909,5.909,0,0,1,1.191-2.1,5.39,5.39,0,0,1,1.916-1.362,6.482,6.482,0,0,1,2.584-.488,5.781,5.781,0,0,1,2.4.479,5.258,5.258,0,0,1,1.811,1.327A5.917,5.917,0,0,1,170.264-9a7.693,7.693,0,0,1,.4,2.522,8.7,8.7,0,0,1-.391,2.659A6.11,6.11,0,0,1,169.122-1.7,5.332,5.332,0,0,1,167.25-.29,6.087,6.087,0,0,1,164.688.22Zm.1-11.971a4.528,4.528,0,0,0-2.026.435,4.417,4.417,0,0,0-1.49,1.178,5.148,5.148,0,0,0-.918,1.74,7.263,7.263,0,0,0-.321,2.123,7.087,7.087,0,0,0,.277,2.052,5.216,5.216,0,0,0,.861,1.731,4.217,4.217,0,0,0,1.455,1.2,4.47,4.47,0,0,0,2.057.448,4.924,4.924,0,0,0,2.07-.409,4.128,4.128,0,0,0,1.49-1.134,4.921,4.921,0,0,0,.9-1.727,7.527,7.527,0,0,0,.3-2.188,8.029,8.029,0,0,0-.268-2.1,4.954,4.954,0,0,0-.835-1.736,4.046,4.046,0,0,0-1.446-1.178A4.712,4.712,0,0,0,164.784-11.751ZM184.77,0h-1.222l-2.7-9.343q-.1-.334-.154-.642a3.924,3.924,0,0,1-.066-.6H180.6a5.555,5.555,0,0,1-.255,1.222L177.545,0h-1.222l-3.718-12.6h1.3l2.777,9.888q.1.325.154.62t.092.567h.035a8.481,8.481,0,0,1,.29-1.187l2.953-9.888h.923L183.9-2.681q.079.3.141.584t.1.558h.035a2.989,2.989,0,0,1,.07-.4q.053-.22.123-.492l2.76-10.178H188.4Zm6.319,0V-12.6h1.169v11.54h5.063V0Zm9.078,0V-12.6h6.144v1.072h-4.975v4.623h4.605v1.055h-4.605v4.79h5.256V0Zm9.773,0V-12.6h3.313a6.9,6.9,0,0,1,4.887,1.551,5.99,5.99,0,0,1,1.652,4.583,7.316,7.316,0,0,1-.461,2.654A5.657,5.657,0,0,1,218-1.771a5.953,5.953,0,0,1-2.109,1.31A7.967,7.967,0,0,1,213.1,0Zm1.169-11.531V-1.063h1.934a7.138,7.138,0,0,0,2.325-.352A4.659,4.659,0,0,0,217.1-2.448a4.432,4.432,0,0,0,1.085-1.683,6.568,6.568,0,0,0,.374-2.3q0-5.1-5.388-5.1ZM232.3-.87A8.28,8.28,0,0,1,228.185.22a6.155,6.155,0,0,1-2.461-.47,5.329,5.329,0,0,1-1.854-1.31,5.775,5.775,0,0,1-1.173-2,7.691,7.691,0,0,1-.409-2.562,7.833,7.833,0,0,1,.2-1.775,6.936,6.936,0,0,1,.58-1.6A6.156,6.156,0,0,1,224-10.854a5.856,5.856,0,0,1,1.27-1.046,6.094,6.094,0,0,1,1.578-.677,6.959,6.959,0,0,1,1.854-.237,7.979,7.979,0,0,1,3.34.668v1.292a7.064,7.064,0,0,0-3.48-.9,4.993,4.993,0,0,0-2.083.422,4.663,4.663,0,0,0-1.586,1.16,5.279,5.279,0,0,0-1.015,1.745,6.581,6.581,0,0,0-.369,2.184,6.962,6.962,0,0,0,.3,2.158,4.842,4.842,0,0,0,.927,1.709,4.243,4.243,0,0,0,1.521,1.125,5.085,5.085,0,0,0,2.092.4,5.537,5.537,0,0,0,2.777-.668V-5.353h-2.865V-6.416H232.3Zm3.638.87V-12.6h6.144v1.072h-4.975v4.623h4.605v1.055h-4.605v4.79h5.256V0Z" transform="translate(709 541.596)" fill="#8e8e8e"/>
    </g>
  </g>
</svg>
