<?xml version="1.0" standalone="no"?>
<!DOCTYPE svg PUBLIC "-//W3C//DTD SVG 20010904//EN"
 "http://www.w3.org/TR/2001/REC-SVG-20010904/DTD/svg10.dtd">
<svg version="1.0" xmlns="http://www.w3.org/2000/svg"
 width="447.000000pt" height="447.000000pt" viewBox="0 0 447.000000 447.000000"
 preserveAspectRatio="xMidYMid meet">
<metadata>
Created by potrace 1.14, written by Peter Selinger 2001-2017
</metadata>
<g transform="translate(0.000000,447.000000) scale(0.100000,-0.100000)"
fill="#000000" stroke="none">
<path d="M1970 4454 c-52 -7 -140 -22 -195 -34 -55 -12 -111 -23 -124 -26 -86
-17 -319 -111 -461 -186 -606 -319 -1041 -916 -1154 -1585 -8 -49 -18 -104
-21 -123 -13 -72 -12 -425 1 -530 24 -189 87 -433 149 -577 96 -225 209 -412
351 -583 206 -248 444 -435 739 -580 210 -103 419 -169 656 -206 160 -26 552
-24 672 2 12 3 35 7 50 9 142 21 394 104 566 187 692 332 1150 970 1256 1748
4 25 8 128 10 230 3 167 -5 275 -30 425 -12 76 -67 290 -76 300 -5 5 -9 15 -9
22 0 33 -106 276 -169 388 -131 233 -331 467 -547 641 -303 244 -732 431
-1079 470 -27 3 -57 8 -65 11 -32 12 -428 10 -520 -3z"/>
</g>
</svg>
